<?xml version="1.0" encoding="UTF-8" standalone="no"?>
<!DOCTYPE svg PUBLIC "-//W3C//DTD SVG 1.1//EN"
 "http://www.w3.org/Graphics/SVG/1.1/DTD/svg11.dtd">
<!-- Generated by graphviz version 2.40.1 (20161225.0304)
 -->
<!-- Title: public.devices Pages: 1 -->
<svg width="992pt" height="1109pt"
 viewBox="0.00 0.00 992.00 1109.00" xmlns="http://www.w3.org/2000/svg" xmlns:xlink="http://www.w3.org/1999/xlink">
<g id="graph0" class="graph" transform="scale(1 1) rotate(0) translate(4 1105)">
<title>public.devices</title>
<polygon fill="#ffffff" stroke="transparent" points="-4,4 -4,-1105 988,-1105 988,4 -4,4"/>
<!-- public.devices -->
<g id="node1" class="node">
<title>public.devices</title>
<polygon fill="#efefef" stroke="transparent" points="349,-652.5 349,-687.5 603,-687.5 603,-652.5 349,-652.5"/>
<polygon fill="none" stroke="#000000" points="349,-652.5 349,-687.5 603,-687.5 603,-652.5 349,-652.5"/>
<text text-anchor="start" x="355.705" y="-665.3" font-family="Arial Bold" font-size="18.00" fill="#000000">public.devices</text>
<text text-anchor="start" x="468.727" y="-665.3" font-family="Arial" font-size="14.00" fill="#000000">    </text>
<text text-anchor="start" x="502.9318" y="-665.3" font-family="Arial" font-size="14.00" fill="#666666">[BASE TABLE]</text>
<polygon fill="none" stroke="#000000" points="349,-622.5 349,-652.5 603,-652.5 603,-622.5 349,-622.5"/>
<text text-anchor="start" x="356" y="-633.9" font-family="Arial" font-size="14.00" fill="#000000">id </text>
<text text-anchor="start" x="370.7798" y="-633.9" font-family="Arial" font-size="14.00" fill="#666666">[uuid]</text>
<polygon fill="none" stroke="#000000" points="349,-592.5 349,-622.5 603,-622.5 603,-592.5 349,-592.5"/>
<text text-anchor="start" x="356" y="-603.9" font-family="Arial" font-size="14.00" fill="#000000">user_id </text>
<text text-anchor="start" x="405.7882" y="-603.9" font-family="Arial" font-size="14.00" fill="#666666">[uuid]</text>
<polygon fill="none" stroke="#000000" points="349,-562.5 349,-592.5 603,-592.5 603,-562.5 349,-562.5"/>
<text text-anchor="start" x="356" y="-573.9" font-family="Arial" font-size="14.00" fill="#000000">device_token </text>
<text text-anchor="start" x="442.366" y="-573.9" font-family="Arial" font-size="14.00" fill="#666666">[varchar(256)]</text>
<polygon fill="none" stroke="#000000" points="349,-532.5 349,-562.5 603,-562.5 603,-532.5 349,-532.5"/>
<text text-anchor="start" x="356" y="-543.9" font-family="Arial" font-size="14.00" fill="#000000">created_at </text>
<text text-anchor="start" x="426.028" y="-543.9" font-family="Arial" font-size="14.00" fill="#666666">[timestamp with time zone]</text>
<polygon fill="none" stroke="#000000" points="349,-502.5 349,-532.5 603,-532.5 603,-502.5 349,-502.5"/>
<text text-anchor="start" x="356" y="-513.9" font-family="Arial" font-size="14.00" fill="#000000">updated_at </text>
<text text-anchor="start" x="429.9326" y="-513.9" font-family="Arial" font-size="14.00" fill="#666666">[timestamp with time zone]</text>
<polygon fill="none" stroke="#000000" stroke-width="3" points="347.5,-501.5 347.5,-689.5 604.5,-689.5 604.5,-501.5 347.5,-501.5"/>
</g>
<!-- public.users -->
<g id="node3" class="node">
<title>public.users</title>
<polygon fill="#efefef" stroke="transparent" points="334,-342.5 334,-377.5 617,-377.5 617,-342.5 334,-342.5"/>
<polygon fill="none" stroke="#000000" points="334,-342.5 334,-377.5 617,-377.5 617,-342.5 334,-342.5"/>
<text text-anchor="start" x="363.7091" y="-355.3" font-family="Arial Bold" font-size="18.00" fill="#000000">public.users</text>
<text text-anchor="start" x="459.7229" y="-355.3" font-family="Arial" font-size="14.00" fill="#000000">    </text>
<text text-anchor="start" x="493.9277" y="-355.3" font-family="Arial" font-size="14.00" fill="#666666">[BASE TABLE]</text>
<polygon fill="none" stroke="#000000" points="334,-312.5 334,-342.5 617,-342.5 617,-312.5 334,-312.5"/>
<text text-anchor="start" x="341" y="-323.9" font-family="Arial" font-size="14.00" fill="#000000">id    </text>
<text text-anchor="start" x="386.094" y="-323.9" font-family="Arial" font-size="14.00" fill="#666666">[uuid]</text>
<polygon fill="none" stroke="#000000" points="334,-282.5 334,-312.5 617,-312.5 617,-282.5 334,-282.5"/>
<text text-anchor="start" x="341" y="-293.9" font-family="Arial" font-size="14.00" fill="#000000">email    </text>
<text text-anchor="start" x="408.6438" y="-293.9" font-family="Arial" font-size="14.00" fill="#666666">[varchar(255)]</text>
<polygon fill="none" stroke="#000000" points="334,-252.5 334,-282.5 617,-282.5 617,-252.5 334,-252.5"/>
<text text-anchor="start" x="341" y="-263.9" font-family="Arial" font-size="14.00" fill="#000000">login    </text>
<text text-anchor="start" x="404.7658" y="-263.9" font-family="Arial" font-size="14.00" fill="#666666">[varchar(80)]</text>
<polygon fill="none" stroke="#000000" points="334,-222.5 334,-252.5 617,-252.5 617,-222.5 334,-222.5"/>
<text text-anchor="start" x="341" y="-233.9" font-family="Arial" font-size="14.00" fill="#000000">first_name    </text>
<text text-anchor="start" x="440.5442" y="-233.9" font-family="Arial" font-size="14.00" fill="#666666">[varchar(20)]</text>
<polygon fill="none" stroke="#000000" points="334,-192.5 334,-222.5 617,-222.5 617,-192.5 334,-192.5"/>
<text text-anchor="start" x="341" y="-203.9" font-family="Arial" font-size="14.00" fill="#000000">last_name    </text>
<text text-anchor="start" x="439.7756" y="-203.9" font-family="Arial" font-size="14.00" fill="#666666">[varchar(20)]</text>
<polygon fill="none" stroke="#000000" points="334,-162.5 334,-192.5 617,-192.5 617,-162.5 334,-162.5"/>
<text text-anchor="start" x="341" y="-173.9" font-family="Arial" font-size="14.00" fill="#000000">middle_name    </text>
<text text-anchor="start" x="459.2174" y="-173.9" font-family="Arial" font-size="14.00" fill="#666666">[varchar(20)]</text>
<polygon fill="none" stroke="#000000" points="334,-132.5 334,-162.5 617,-162.5 617,-132.5 334,-132.5"/>
<text text-anchor="start" x="341" y="-143.9" font-family="Arial" font-size="14.00" fill="#000000">avatar    </text>
<text text-anchor="start" x="414.1038" y="-143.9" font-family="Arial" font-size="14.00" fill="#666666">[varchar(255)]</text>
<polygon fill="none" stroke="#000000" points="334,-102.5 334,-132.5 617,-132.5 617,-102.5 334,-102.5"/>
<text text-anchor="start" x="341" y="-113.9" font-family="Arial" font-size="14.00" fill="#000000">created_at    </text>
<text text-anchor="start" x="441.3422" y="-113.9" font-family="Arial" font-size="14.00" fill="#666666">[timestamp with time zone]</text>
<polygon fill="none" stroke="#000000" points="334,-72.5 334,-102.5 617,-102.5 617,-72.5 334,-72.5"/>
<text text-anchor="start" x="340.5344" y="-83.9" font-family="Arial" font-size="14.00" fill="#000000">updated_at    </text>
<text text-anchor="start" x="444.7812" y="-83.9" font-family="Arial" font-size="14.00" fill="#666666">[timestamp with time zone]</text>
<polygon fill="none" stroke="#000000" points="334,-42.5 334,-72.5 617,-72.5 617,-42.5 334,-42.5"/>
<text text-anchor="start" x="341" y="-53.9" font-family="Arial" font-size="14.00" fill="#000000">deleted_at    </text>
<text text-anchor="start" x="440.5708" y="-53.9" font-family="Arial" font-size="14.00" fill="#666666">[timestamp with time zone]</text>
</g>
<!-- public.devices&#45;&gt;public.users -->
<g id="edge2" class="edge">
<title>public.devices:user_id&#45;&gt;public.users:id</title>
<path fill="none" stroke="#000000" d="M338.82,-606.6259C284.6739,-596.6948 307.3715,-504.5943 349,-457 428.1219,-366.5391 537.8781,-511.4609 617,-421 644.3584,-389.7209 658.5556,-327.5 617,-327.5"/>
<polygon fill="#000000" stroke="#000000" points="339.0367,-606.6445 348.615,-611.9835 344.0183,-607.0722 349,-607.5 349,-607.5 349,-607.5 344.0183,-607.0722 349.385,-603.0165 339.0367,-606.6445 339.0367,-606.6445"/>
<text text-anchor="start" x="7.224" y="-617.5" font-family="Arial" font-size="10.00" fill="#000000">FOREIGN KEY (user_id) REFERENCES users(id) ON DELETE RESTRICT</text>
</g>
<!-- public.access -->
<g id="node2" class="node">
<title>public.access</title>
<polygon fill="#efefef" stroke="transparent" points="336,-1022.5 336,-1057.5 616,-1057.5 616,-1022.5 336,-1022.5"/>
<polygon fill="none" stroke="#000000" points="336,-1022.5 336,-1057.5 616,-1057.5 616,-1022.5 336,-1022.5"/>
<text text-anchor="start" x="358.2052" y="-1035.3" font-family="Arial Bold" font-size="18.00" fill="#000000">public.access</text>
<text text-anchor="start" x="466.2268" y="-1035.3" font-family="Arial" font-size="14.00" fill="#000000">    </text>
<text text-anchor="start" x="500.4316" y="-1035.3" font-family="Arial" font-size="14.00" fill="#666666">[BASE TABLE]</text>
<polygon fill="none" stroke="#000000" points="336,-992.5 336,-1022.5 616,-1022.5 616,-992.5 336,-992.5"/>
<text text-anchor="start" x="343" y="-1003.9" font-family="Arial" font-size="14.00" fill="#000000">id    </text>
<text text-anchor="start" x="388.094" y="-1003.9" font-family="Arial" font-size="14.00" fill="#666666">[uuid]</text>
<polygon fill="none" stroke="#000000" points="336,-962.5 336,-992.5 616,-992.5 616,-962.5 336,-962.5"/>
<text text-anchor="start" x="343" y="-973.9" font-family="Arial" font-size="14.00" fill="#000000">user_id    </text>
<text text-anchor="start" x="423.1024" y="-973.9" font-family="Arial" font-size="14.00" fill="#666666">[uuid]</text>
<polygon fill="none" stroke="#000000" points="336,-932.5 336,-962.5 616,-962.5 616,-932.5 336,-932.5"/>
<text text-anchor="start" x="343" y="-943.9" font-family="Arial" font-size="14.00" fill="#000000">device_id    </text>
<text text-anchor="start" x="436.331" y="-943.9" font-family="Arial" font-size="14.00" fill="#666666">[uuid]</text>
<polygon fill="none" stroke="#000000" points="336,-902.5 336,-932.5 616,-932.5 616,-902.5 336,-902.5"/>
<text text-anchor="start" x="343" y="-913.9" font-family="Arial" font-size="14.00" fill="#000000">token    </text>
<text text-anchor="start" x="411.4432" y="-913.9" font-family="Arial" font-size="14.00" fill="#666666">[varchar(256)]</text>
<polygon fill="none" stroke="#000000" points="336,-872.5 336,-902.5 616,-902.5 616,-872.5 336,-872.5"/>
<text text-anchor="start" x="342.9867" y="-883.9" font-family="Arial" font-size="14.00" fill="#000000">created_at    </text>
<text text-anchor="start" x="443.3289" y="-883.9" font-family="Arial" font-size="14.00" fill="#666666">[timestamp with time zone]</text>
<polygon fill="none" stroke="#000000" points="336,-842.5 336,-872.5 616,-872.5 616,-842.5 336,-842.5"/>
<text text-anchor="start" x="343" y="-853.9" font-family="Arial" font-size="14.00" fill="#000000">expires_at    </text>
<text text-anchor="start" x="441.7756" y="-853.9" font-family="Arial" font-size="14.00" fill="#666666">[timestamp with time zone]</text>
<polygon fill="none" stroke="#000000" points="336,-812.5 336,-842.5 616,-842.5 616,-812.5 336,-812.5"/>
<text text-anchor="start" x="343" y="-823.9" font-family="Arial" font-size="14.00" fill="#000000">deleted_at    </text>
<text text-anchor="start" x="442.5708" y="-823.9" font-family="Arial" font-size="14.00" fill="#666666">[timestamp with time zone]</text>
</g>
<!-- public.access&#45;&gt;public.devices -->
<g id="edge1" class="edge">
<title>public.access:device_id&#45;&gt;public.devices:id</title>
<path fill="none" stroke="#000000" d="M625.8734,-945.183C683.4848,-916.815 668.4481,-637.5 603,-637.5"/>
<polygon fill="#000000" stroke="#000000" points="625.7355,-945.2153 614.9719,-943.119 620.8678,-946.3576 616,-947.5 616,-947.5 616,-947.5 620.8678,-946.3576 617.0281,-951.881 625.7355,-945.2153 625.7355,-945.2153"/>
<text text-anchor="start" x="622.775" y="-957.5" font-family="Arial" font-size="10.00" fill="#000000">FOREIGN KEY (device_id) REFERENCES devices(id) ON DELETE RESTRICT</text>
</g>
</g>
</svg>
