<?xml version="1.0" encoding="UTF-8" standalone="no"?>
<!DOCTYPE svg PUBLIC "-//W3C//DTD SVG 1.1//EN"
 "http://www.w3.org/Graphics/SVG/1.1/DTD/svg11.dtd">
<!-- Generated by graphviz version 2.40.1 (20161225.0304)
 -->
<!-- Title: public.verifications Pages: 1 -->
<svg width="810pt" height="742pt"
 viewBox="0.00 0.00 810.00 742.00" xmlns="http://www.w3.org/2000/svg" xmlns:xlink="http://www.w3.org/1999/xlink">
<g id="graph0" class="graph" transform="scale(1 1) rotate(0) translate(4 738)">
<title>public.verifications</title>
<polygon fill="#ffffff" stroke="transparent" points="-4,4 -4,-738 806,-738 806,4 -4,4"/>
<!-- public.verifications -->
<g id="node1" class="node">
<title>public.verifications</title>
<polygon fill="#efefef" stroke="transparent" points="468,-652.5 468,-687.5 756,-687.5 756,-652.5 468,-652.5"/>
<polygon fill="none" stroke="#000000" points="468,-652.5 468,-687.5 756,-687.5 756,-652.5 468,-652.5"/>
<text text-anchor="start" x="474.7094" y="-665.3" font-family="Arial Bold" font-size="18.00" fill="#000000">public.verifications</text>
<text text-anchor="start" x="621.7226" y="-665.3" font-family="Arial" font-size="14.00" fill="#000000">    </text>
<text text-anchor="start" x="655.9274" y="-665.3" font-family="Arial" font-size="14.00" fill="#666666">[BASE TABLE]</text>
<polygon fill="none" stroke="#000000" points="468,-622.5 468,-652.5 756,-652.5 756,-622.5 468,-622.5"/>
<text text-anchor="start" x="475" y="-633.9" font-family="Arial" font-size="14.00" fill="#000000">email </text>
<text text-anchor="start" x="512.3296" y="-633.9" font-family="Arial" font-size="14.00" fill="#666666">[varchar(255)]</text>
<polygon fill="none" stroke="#000000" points="468,-592.5 468,-622.5 756,-622.5 756,-592.5 468,-592.5"/>
<text text-anchor="start" x="475" y="-603.9" font-family="Arial" font-size="14.00" fill="#000000">type </text>
<text text-anchor="start" x="505.3464" y="-603.9" font-family="Arial" font-size="14.00" fill="#666666">[varchar(25)]</text>
<polygon fill="none" stroke="#000000" points="468,-562.5 468,-592.5 756,-592.5 756,-562.5 468,-562.5"/>
<text text-anchor="start" x="475" y="-573.9" font-family="Arial" font-size="14.00" fill="#000000">code </text>
<text text-anchor="start" x="509.2384" y="-573.9" font-family="Arial" font-size="14.00" fill="#666666">[varchar(10)]</text>
<polygon fill="none" stroke="#000000" points="468,-532.5 468,-562.5 756,-562.5 756,-532.5 468,-532.5"/>
<text text-anchor="start" x="475" y="-543.9" font-family="Arial" font-size="14.00" fill="#000000">created_at </text>
<text text-anchor="start" x="545.028" y="-543.9" font-family="Arial" font-size="14.00" fill="#666666">[timestamp with time zone]</text>
<polygon fill="none" stroke="#000000" points="468,-502.5 468,-532.5 756,-532.5 756,-502.5 468,-502.5"/>
<text text-anchor="start" x="475" y="-513.9" font-family="Arial" font-size="14.00" fill="#000000">expires_at </text>
<text text-anchor="start" x="543.4614" y="-513.9" font-family="Arial" font-size="14.00" fill="#666666">[timestamp with time zone]</text>
<polygon fill="none" stroke="#000000" stroke-width="3" points="466.5,-501.5 466.5,-689.5 757.5,-689.5 757.5,-501.5 466.5,-501.5"/>
</g>
<!-- public.users -->
<g id="node2" class="node">
<title>public.users</title>
<polygon fill="#efefef" stroke="transparent" points="470,-342.5 470,-377.5 753,-377.5 753,-342.5 470,-342.5"/>
<polygon fill="none" stroke="#000000" points="470,-342.5 470,-377.5 753,-377.5 753,-342.5 470,-342.5"/>
<text text-anchor="start" x="499.7091" y="-355.3" font-family="Arial Bold" font-size="18.00" fill="#000000">public.users</text>
<text text-anchor="start" x="595.7229" y="-355.3" font-family="Arial" font-size="14.00" fill="#000000">    </text>
<text text-anchor="start" x="629.9277" y="-355.3" font-family="Arial" font-size="14.00" fill="#666666">[BASE TABLE]</text>
<polygon fill="none" stroke="#000000" points="470,-312.5 470,-342.5 753,-342.5 753,-312.5 470,-312.5"/>
<text text-anchor="start" x="477" y="-323.9" font-family="Arial" font-size="14.00" fill="#000000">id    </text>
<text text-anchor="start" x="522.094" y="-323.9" font-family="Arial" font-size="14.00" fill="#666666">[uuid]</text>
<polygon fill="none" stroke="#000000" points="470,-282.5 470,-312.5 753,-312.5 753,-282.5 470,-282.5"/>
<text text-anchor="start" x="477" y="-293.9" font-family="Arial" font-size="14.00" fill="#000000">email    </text>
<text text-anchor="start" x="544.6438" y="-293.9" font-family="Arial" font-size="14.00" fill="#666666">[varchar(255)]</text>
<polygon fill="none" stroke="#000000" points="470,-252.5 470,-282.5 753,-282.5 753,-252.5 470,-252.5"/>
<text text-anchor="start" x="477" y="-263.9" font-family="Arial" font-size="14.00" fill="#000000">login    </text>
<text text-anchor="start" x="540.7658" y="-263.9" font-family="Arial" font-size="14.00" fill="#666666">[varchar(80)]</text>
<polygon fill="none" stroke="#000000" points="470,-222.5 470,-252.5 753,-252.5 753,-222.5 470,-222.5"/>
<text text-anchor="start" x="477" y="-233.9" font-family="Arial" font-size="14.00" fill="#000000">first_name    </text>
<text text-anchor="start" x="576.5442" y="-233.9" font-family="Arial" font-size="14.00" fill="#666666">[varchar(20)]</text>
<polygon fill="none" stroke="#000000" points="470,-192.5 470,-222.5 753,-222.5 753,-192.5 470,-192.5"/>
<text text-anchor="start" x="477" y="-203.9" font-family="Arial" font-size="14.00" fill="#000000">last_name    </text>
<text text-anchor="start" x="575.7756" y="-203.9" font-family="Arial" font-size="14.00" fill="#666666">[varchar(20)]</text>
<polygon fill="none" stroke="#000000" points="470,-162.5 470,-192.5 753,-192.5 753,-162.5 470,-162.5"/>
<text text-anchor="start" x="477" y="-173.9" font-family="Arial" font-size="14.00" fill="#000000">middle_name    </text>
<text text-anchor="start" x="595.2174" y="-173.9" font-family="Arial" font-size="14.00" fill="#666666">[varchar(20)]</text>
<polygon fill="none" stroke="#000000" points="470,-132.5 470,-162.5 753,-162.5 753,-132.5 470,-132.5"/>
<text text-anchor="start" x="477" y="-143.9" font-family="Arial" font-size="14.00" fill="#000000">avatar    </text>
<text text-anchor="start" x="550.1038" y="-143.9" font-family="Arial" font-size="14.00" fill="#666666">[varchar(255)]</text>
<polygon fill="none" stroke="#000000" points="470,-102.5 470,-132.5 753,-132.5 753,-102.5 470,-102.5"/>
<text text-anchor="start" x="477" y="-113.9" font-family="Arial" font-size="14.00" fill="#000000">created_at    </text>
<text text-anchor="start" x="577.3422" y="-113.9" font-family="Arial" font-size="14.00" fill="#666666">[timestamp with time zone]</text>
<polygon fill="none" stroke="#000000" points="470,-72.5 470,-102.5 753,-102.5 753,-72.5 470,-72.5"/>
<text text-anchor="start" x="476.5344" y="-83.9" font-family="Arial" font-size="14.00" fill="#000000">updated_at    </text>
<text text-anchor="start" x="580.7812" y="-83.9" font-family="Arial" font-size="14.00" fill="#666666">[timestamp with time zone]</text>
<polygon fill="none" stroke="#000000" points="470,-42.5 470,-72.5 753,-72.5 753,-42.5 470,-42.5"/>
<text text-anchor="start" x="477" y="-53.9" font-family="Arial" font-size="14.00" fill="#000000">deleted_at    </text>
<text text-anchor="start" x="576.5708" y="-53.9" font-family="Arial" font-size="14.00" fill="#666666">[timestamp with time zone]</text>
</g>
<!-- public.verifications&#45;&gt;public.users -->
<g id="edge1" class="edge">
<title>public.verifications:email&#45;&gt;public.users:email</title>
<path fill="none" stroke="#000000" d="M457.8316,-636.7879C390.2711,-626.811 417.3309,-514.472 468,-457 552.4324,-361.2315 668.5676,-516.7685 753,-421 789.2989,-379.8275 807.8889,-297.5 753,-297.5"/>
<polygon fill="#000000" stroke="#000000" points="458.0244,-636.8013 467.6856,-641.989 463.0122,-637.1507 468,-637.5 468,-637.5 468,-637.5 463.0122,-637.1507 468.3144,-633.011 458.0244,-636.8013 458.0244,-636.8013"/>
<text text-anchor="start" x="6.509" y="-647.5" font-family="Arial" font-size="10.00" fill="#000000">FOREIGN KEY (email) REFERENCES users(email) ON UPDATE CASCADE ON DELETE RESTRICT</text>
</g>
</g>
</svg>
