<?xml version="1.0" encoding="UTF-8" standalone="no"?>
<!DOCTYPE svg PUBLIC "-//W3C//DTD SVG 1.1//EN"
 "http://www.w3.org/Graphics/SVG/1.1/DTD/svg11.dtd">
<!-- Generated by graphviz version 2.40.1 (20161225.0304)
 -->
<!-- Title: public.users Pages: 1 -->
<svg width="1313pt" height="802pt"
 viewBox="0.00 0.00 1313.00 802.00" xmlns="http://www.w3.org/2000/svg" xmlns:xlink="http://www.w3.org/1999/xlink">
<g id="graph0" class="graph" transform="scale(1 1) rotate(0) translate(4 798)">
<title>public.users</title>
<polygon fill="#ffffff" stroke="transparent" points="-4,4 -4,-798 1309,-798 1309,4 -4,4"/>
<!-- public.users -->
<g id="node1" class="node">
<title>public.users</title>
<polygon fill="#efefef" stroke="transparent" points="466,-345.5 466,-380.5 719,-380.5 719,-345.5 466,-345.5"/>
<polygon fill="none" stroke="#000000" points="466,-345.5 466,-380.5 719,-380.5 719,-345.5 466,-345.5"/>
<text text-anchor="start" x="480.7091" y="-358.3" font-family="Arial Bold" font-size="18.00" fill="#000000">public.users</text>
<text text-anchor="start" x="576.7229" y="-358.3" font-family="Arial" font-size="14.00" fill="#000000">    </text>
<text text-anchor="start" x="610.9277" y="-358.3" font-family="Arial" font-size="14.00" fill="#666666">[BASE TABLE]</text>
<polygon fill="none" stroke="#000000" points="466,-315.5 466,-345.5 719,-345.5 719,-315.5 466,-315.5"/>
<text text-anchor="start" x="473" y="-326.9" font-family="Arial" font-size="14.00" fill="#000000">id </text>
<text text-anchor="start" x="487.7798" y="-326.9" font-family="Arial" font-size="14.00" fill="#666666">[uuid]</text>
<polygon fill="none" stroke="#000000" points="466,-285.5 466,-315.5 719,-315.5 719,-285.5 466,-285.5"/>
<text text-anchor="start" x="473" y="-296.9" font-family="Arial" font-size="14.00" fill="#000000">email </text>
<text text-anchor="start" x="510.3296" y="-296.9" font-family="Arial" font-size="14.00" fill="#666666">[varchar(255)]</text>
<polygon fill="none" stroke="#000000" points="466,-255.5 466,-285.5 719,-285.5 719,-255.5 466,-255.5"/>
<text text-anchor="start" x="473" y="-266.9" font-family="Arial" font-size="14.00" fill="#000000">login </text>
<text text-anchor="start" x="506.4516" y="-266.9" font-family="Arial" font-size="14.00" fill="#666666">[varchar(80)]</text>
<polygon fill="none" stroke="#000000" points="466,-225.5 466,-255.5 719,-255.5 719,-225.5 466,-225.5"/>
<text text-anchor="start" x="473" y="-236.9" font-family="Arial" font-size="14.00" fill="#000000">first_name </text>
<text text-anchor="start" x="542.23" y="-236.9" font-family="Arial" font-size="14.00" fill="#666666">[varchar(20)]</text>
<polygon fill="none" stroke="#000000" points="466,-195.5 466,-225.5 719,-225.5 719,-195.5 466,-195.5"/>
<text text-anchor="start" x="473" y="-206.9" font-family="Arial" font-size="14.00" fill="#000000">last_name </text>
<text text-anchor="start" x="541.4614" y="-206.9" font-family="Arial" font-size="14.00" fill="#666666">[varchar(20)]</text>
<polygon fill="none" stroke="#000000" points="466,-165.5 466,-195.5 719,-195.5 719,-165.5 466,-165.5"/>
<text text-anchor="start" x="473" y="-176.9" font-family="Arial" font-size="14.00" fill="#000000">middle_name </text>
<text text-anchor="start" x="560.9032" y="-176.9" font-family="Arial" font-size="14.00" fill="#666666">[varchar(20)]</text>
<polygon fill="none" stroke="#000000" points="466,-135.5 466,-165.5 719,-165.5 719,-135.5 466,-135.5"/>
<text text-anchor="start" x="473" y="-146.9" font-family="Arial" font-size="14.00" fill="#000000">avatar </text>
<text text-anchor="start" x="515.7896" y="-146.9" font-family="Arial" font-size="14.00" fill="#666666">[varchar(255)]</text>
<polygon fill="none" stroke="#000000" points="466,-105.5 466,-135.5 719,-135.5 719,-105.5 466,-105.5"/>
<text text-anchor="start" x="473" y="-116.9" font-family="Arial" font-size="14.00" fill="#000000">created_at </text>
<text text-anchor="start" x="543.028" y="-116.9" font-family="Arial" font-size="14.00" fill="#666666">[timestamp with time zone]</text>
<polygon fill="none" stroke="#000000" points="466,-75.5 466,-105.5 719,-105.5 719,-75.5 466,-75.5"/>
<text text-anchor="start" x="472.6915" y="-86.9" font-family="Arial" font-size="14.00" fill="#000000">updated_at </text>
<text text-anchor="start" x="546.6241" y="-86.9" font-family="Arial" font-size="14.00" fill="#666666">[timestamp with time zone]</text>
<polygon fill="none" stroke="#000000" points="466,-45.5 466,-75.5 719,-75.5 719,-45.5 466,-45.5"/>
<text text-anchor="start" x="473" y="-56.9" font-family="Arial" font-size="14.00" fill="#000000">deleted_at </text>
<text text-anchor="start" x="542.2566" y="-56.9" font-family="Arial" font-size="14.00" fill="#666666">[timestamp with time zone]</text>
<polygon fill="none" stroke="#000000" stroke-width="3" points="464,-44.5 464,-382.5 720,-382.5 720,-44.5 464,-44.5"/>
</g>
<!-- public.devices -->
<g id="node2" class="node">
<title>public.devices</title>
<polygon fill="#efefef" stroke="transparent" points="66,-685.5 66,-720.5 349,-720.5 349,-685.5 66,-685.5"/>
<polygon fill="none" stroke="#000000" points="66,-685.5 66,-720.5 349,-720.5 349,-685.5 66,-685.5"/>
<text text-anchor="start" x="87.205" y="-698.3" font-family="Arial Bold" font-size="18.00" fill="#000000">public.devices</text>
<text text-anchor="start" x="200.227" y="-698.3" font-family="Arial" font-size="14.00" fill="#000000">    </text>
<text text-anchor="start" x="234.4318" y="-698.3" font-family="Arial" font-size="14.00" fill="#666666">[BASE TABLE]</text>
<polygon fill="none" stroke="#000000" points="66,-655.5 66,-685.5 349,-685.5 349,-655.5 66,-655.5"/>
<text text-anchor="start" x="73" y="-666.9" font-family="Arial" font-size="14.00" fill="#000000">id    </text>
<text text-anchor="start" x="118.094" y="-666.9" font-family="Arial" font-size="14.00" fill="#666666">[uuid]</text>
<polygon fill="none" stroke="#000000" points="66,-625.5 66,-655.5 349,-655.5 349,-625.5 66,-625.5"/>
<text text-anchor="start" x="73" y="-636.9" font-family="Arial" font-size="14.00" fill="#000000">user_id    </text>
<text text-anchor="start" x="153.1024" y="-636.9" font-family="Arial" font-size="14.00" fill="#666666">[uuid]</text>
<polygon fill="none" stroke="#000000" points="66,-595.5 66,-625.5 349,-625.5 349,-595.5 66,-595.5"/>
<text text-anchor="start" x="73" y="-606.9" font-family="Arial" font-size="14.00" fill="#000000">device_token    </text>
<text text-anchor="start" x="189.6802" y="-606.9" font-family="Arial" font-size="14.00" fill="#666666">[varchar(256)]</text>
<polygon fill="none" stroke="#000000" points="66,-565.5 66,-595.5 349,-595.5 349,-565.5 66,-565.5"/>
<text text-anchor="start" x="73" y="-576.9" font-family="Arial" font-size="14.00" fill="#000000">created_at    </text>
<text text-anchor="start" x="173.3422" y="-576.9" font-family="Arial" font-size="14.00" fill="#666666">[timestamp with time zone]</text>
<polygon fill="none" stroke="#000000" points="66,-535.5 66,-565.5 349,-565.5 349,-535.5 66,-535.5"/>
<text text-anchor="start" x="72.5344" y="-546.9" font-family="Arial" font-size="14.00" fill="#000000">updated_at    </text>
<text text-anchor="start" x="176.7812" y="-546.9" font-family="Arial" font-size="14.00" fill="#666666">[timestamp with time zone]</text>
</g>
<!-- public.devices&#45;&gt;public.users -->
<g id="edge1" class="edge">
<title>public.devices:user_id&#45;&gt;public.users:id</title>
<path fill="none" stroke="#000000" d="M359.2386,-639.9007C425.9975,-631.486 372.5703,-536.1836 401,-463 424.7518,-401.8582 400.4068,-330.5 466,-330.5"/>
<polygon fill="#000000" stroke="#000000" points="358.9829,-639.9155 348.737,-636.0077 353.9915,-640.2078 349,-640.5 349,-640.5 349,-640.5 353.9915,-640.2078 349.263,-644.9923 358.9829,-639.9155 358.9829,-639.9155"/>
<text text-anchor="start" x="7.224" y="-650.5" font-family="Arial" font-size="10.00" fill="#000000">FOREIGN KEY (user_id) REFERENCES users(id) ON DELETE RESTRICT</text>
</g>
<!-- public.access -->
<g id="node3" class="node">
<title>public.access</title>
<polygon fill="#efefef" stroke="transparent" points="453,-715.5 453,-750.5 733,-750.5 733,-715.5 453,-715.5"/>
<polygon fill="none" stroke="#000000" points="453,-715.5 453,-750.5 733,-750.5 733,-715.5 453,-715.5"/>
<text text-anchor="start" x="475.2052" y="-728.3" font-family="Arial Bold" font-size="18.00" fill="#000000">public.access</text>
<text text-anchor="start" x="583.2268" y="-728.3" font-family="Arial" font-size="14.00" fill="#000000">    </text>
<text text-anchor="start" x="617.4316" y="-728.3" font-family="Arial" font-size="14.00" fill="#666666">[BASE TABLE]</text>
<polygon fill="none" stroke="#000000" points="453,-685.5 453,-715.5 733,-715.5 733,-685.5 453,-685.5"/>
<text text-anchor="start" x="460" y="-696.9" font-family="Arial" font-size="14.00" fill="#000000">id    </text>
<text text-anchor="start" x="505.094" y="-696.9" font-family="Arial" font-size="14.00" fill="#666666">[uuid]</text>
<polygon fill="none" stroke="#000000" points="453,-655.5 453,-685.5 733,-685.5 733,-655.5 453,-655.5"/>
<text text-anchor="start" x="460" y="-666.9" font-family="Arial" font-size="14.00" fill="#000000">user_id    </text>
<text text-anchor="start" x="540.1024" y="-666.9" font-family="Arial" font-size="14.00" fill="#666666">[uuid]</text>
<polygon fill="none" stroke="#000000" points="453,-625.5 453,-655.5 733,-655.5 733,-625.5 453,-625.5"/>
<text text-anchor="start" x="460" y="-636.9" font-family="Arial" font-size="14.00" fill="#000000">device_id    </text>
<text text-anchor="start" x="553.331" y="-636.9" font-family="Arial" font-size="14.00" fill="#666666">[uuid]</text>
<polygon fill="none" stroke="#000000" points="453,-595.5 453,-625.5 733,-625.5 733,-595.5 453,-595.5"/>
<text text-anchor="start" x="460" y="-606.9" font-family="Arial" font-size="14.00" fill="#000000">token    </text>
<text text-anchor="start" x="528.4432" y="-606.9" font-family="Arial" font-size="14.00" fill="#666666">[varchar(256)]</text>
<polygon fill="none" stroke="#000000" points="453,-565.5 453,-595.5 733,-595.5 733,-565.5 453,-565.5"/>
<text text-anchor="start" x="459.9867" y="-576.9" font-family="Arial" font-size="14.00" fill="#000000">created_at    </text>
<text text-anchor="start" x="560.3289" y="-576.9" font-family="Arial" font-size="14.00" fill="#666666">[timestamp with time zone]</text>
<polygon fill="none" stroke="#000000" points="453,-535.5 453,-565.5 733,-565.5 733,-535.5 453,-535.5"/>
<text text-anchor="start" x="460" y="-546.9" font-family="Arial" font-size="14.00" fill="#000000">expires_at    </text>
<text text-anchor="start" x="558.7756" y="-546.9" font-family="Arial" font-size="14.00" fill="#666666">[timestamp with time zone]</text>
<polygon fill="none" stroke="#000000" points="453,-505.5 453,-535.5 733,-535.5 733,-505.5 453,-505.5"/>
<text text-anchor="start" x="460" y="-516.9" font-family="Arial" font-size="14.00" fill="#000000">deleted_at    </text>
<text text-anchor="start" x="559.5708" y="-516.9" font-family="Arial" font-size="14.00" fill="#666666">[timestamp with time zone]</text>
</g>
<!-- public.access&#45;&gt;public.users -->
<g id="edge2" class="edge">
<title>public.access:user_id&#45;&gt;public.users:id</title>
<path fill="none" stroke="#000000" d="M443.3032,-667.4846C409.442,-644.3462 425.03,-495.0104 453,-463 531.4974,-373.1632 640.5026,-516.8368 719,-427 747.2202,-394.7033 761.8889,-330.5 719,-330.5"/>
<polygon fill="#000000" stroke="#000000" points="443.4511,-667.5305 451.6637,-674.797 448.2255,-669.0152 453,-670.5 453,-670.5 453,-670.5 448.2255,-669.0152 454.3363,-666.203 443.4511,-667.5305 443.4511,-667.5305"/>
<text text-anchor="start" x="460.224" y="-680.5" font-family="Arial" font-size="10.00" fill="#000000">FOREIGN KEY (user_id) REFERENCES users(id) ON DELETE RESTRICT</text>
</g>
<!-- public.verifications -->
<g id="node4" class="node">
<title>public.verifications</title>
<polygon fill="#efefef" stroke="transparent" points="837,-685.5 837,-720.5 1125,-720.5 1125,-685.5 837,-685.5"/>
<polygon fill="none" stroke="#000000" points="837,-685.5 837,-720.5 1125,-720.5 1125,-685.5 837,-685.5"/>
<text text-anchor="start" x="843.7094" y="-698.3" font-family="Arial Bold" font-size="18.00" fill="#000000">public.verifications</text>
<text text-anchor="start" x="990.7226" y="-698.3" font-family="Arial" font-size="14.00" fill="#000000">    </text>
<text text-anchor="start" x="1024.9274" y="-698.3" font-family="Arial" font-size="14.00" fill="#666666">[BASE TABLE]</text>
<polygon fill="none" stroke="#000000" points="837,-655.5 837,-685.5 1125,-685.5 1125,-655.5 837,-655.5"/>
<text text-anchor="start" x="844" y="-666.9" font-family="Arial" font-size="14.00" fill="#000000">email    </text>
<text text-anchor="start" x="911.6438" y="-666.9" font-family="Arial" font-size="14.00" fill="#666666">[varchar(255)]</text>
<polygon fill="none" stroke="#000000" points="837,-625.5 837,-655.5 1125,-655.5 1125,-625.5 837,-625.5"/>
<text text-anchor="start" x="844" y="-636.9" font-family="Arial" font-size="14.00" fill="#000000">type    </text>
<text text-anchor="start" x="904.6606" y="-636.9" font-family="Arial" font-size="14.00" fill="#666666">[varchar(25)]</text>
<polygon fill="none" stroke="#000000" points="837,-595.5 837,-625.5 1125,-625.5 1125,-595.5 837,-595.5"/>
<text text-anchor="start" x="844" y="-606.9" font-family="Arial" font-size="14.00" fill="#000000">code    </text>
<text text-anchor="start" x="908.5526" y="-606.9" font-family="Arial" font-size="14.00" fill="#666666">[varchar(10)]</text>
<polygon fill="none" stroke="#000000" points="837,-565.5 837,-595.5 1125,-595.5 1125,-565.5 837,-565.5"/>
<text text-anchor="start" x="844" y="-576.9" font-family="Arial" font-size="14.00" fill="#000000">created_at    </text>
<text text-anchor="start" x="944.3422" y="-576.9" font-family="Arial" font-size="14.00" fill="#666666">[timestamp with time zone]</text>
<polygon fill="none" stroke="#000000" points="837,-535.5 837,-565.5 1125,-565.5 1125,-535.5 837,-535.5"/>
<text text-anchor="start" x="844" y="-546.9" font-family="Arial" font-size="14.00" fill="#000000">expires_at    </text>
<text text-anchor="start" x="942.7756" y="-546.9" font-family="Arial" font-size="14.00" fill="#666666">[timestamp with time zone]</text>
</g>
<!-- public.verifications&#45;&gt;public.users -->
<g id="edge3" class="edge">
<title>public.verifications:email&#45;&gt;public.users:email</title>
<path fill="none" stroke="#000000" d="M826.6099,-669.9724C747.4413,-661.3905 813.3633,-549.8458 785,-463 760.7994,-388.8999 796.9519,-300.5 719,-300.5"/>
<polygon fill="#000000" stroke="#000000" points="827.0129,-669.9928 836.7718,-674.9942 832.0064,-670.2464 837,-670.5 837,-670.5 837,-670.5 832.0064,-670.2464 837.2282,-666.0058 827.0129,-669.9928 827.0129,-669.9928"/>
<text text-anchor="start" x="843.509" y="-680.5" font-family="Arial" font-size="10.00" fill="#000000">FOREIGN KEY (email) REFERENCES users(email) ON UPDATE CASCADE ON DELETE RESTRICT</text>
</g>
</g>
</svg>
