<?xml version="1.0" encoding="UTF-8" standalone="no"?>
<!DOCTYPE svg PUBLIC "-//W3C//DTD SVG 1.1//EN"
 "http://www.w3.org/Graphics/SVG/1.1/DTD/svg11.dtd">
<!-- Generated by graphviz version 2.40.1 (20161225.0304)
 -->
<!-- Title: public.access Pages: 1 -->
<svg width="974pt" height="802pt"
 viewBox="0.00 0.00 974.00 802.00" xmlns="http://www.w3.org/2000/svg" xmlns:xlink="http://www.w3.org/1999/xlink">
<g id="graph0" class="graph" transform="scale(1 1) rotate(0) translate(4 798)">
<title>public.access</title>
<polygon fill="#ffffff" stroke="transparent" points="-4,4 -4,-798 970,-798 970,4 -4,4"/>
<!-- public.access -->
<g id="node1" class="node">
<title>public.access</title>
<polygon fill="#efefef" stroke="transparent" points="349,-712.5 349,-747.5 598,-747.5 598,-712.5 349,-712.5"/>
<polygon fill="none" stroke="#000000" points="349,-712.5 349,-747.5 598,-747.5 598,-712.5 349,-712.5"/>
<text text-anchor="start" x="355.7052" y="-725.3" font-family="Arial Bold" font-size="18.00" fill="#000000">public.access</text>
<text text-anchor="start" x="463.7268" y="-725.3" font-family="Arial" font-size="14.00" fill="#000000">    </text>
<text text-anchor="start" x="497.9316" y="-725.3" font-family="Arial" font-size="14.00" fill="#666666">[BASE TABLE]</text>
<polygon fill="none" stroke="#000000" points="349,-682.5 349,-712.5 598,-712.5 598,-682.5 349,-682.5"/>
<text text-anchor="start" x="356" y="-693.9" font-family="Arial" font-size="14.00" fill="#000000">id </text>
<text text-anchor="start" x="370.7798" y="-693.9" font-family="Arial" font-size="14.00" fill="#666666">[uuid]</text>
<polygon fill="none" stroke="#000000" points="349,-652.5 349,-682.5 598,-682.5 598,-652.5 349,-652.5"/>
<text text-anchor="start" x="356" y="-663.9" font-family="Arial" font-size="14.00" fill="#000000">user_id </text>
<text text-anchor="start" x="405.7882" y="-663.9" font-family="Arial" font-size="14.00" fill="#666666">[uuid]</text>
<polygon fill="none" stroke="#000000" points="349,-622.5 349,-652.5 598,-652.5 598,-622.5 349,-622.5"/>
<text text-anchor="start" x="356" y="-633.9" font-family="Arial" font-size="14.00" fill="#000000">device_id </text>
<text text-anchor="start" x="419.0168" y="-633.9" font-family="Arial" font-size="14.00" fill="#666666">[uuid]</text>
<polygon fill="none" stroke="#000000" points="349,-592.5 349,-622.5 598,-622.5 598,-592.5 349,-592.5"/>
<text text-anchor="start" x="356" y="-603.9" font-family="Arial" font-size="14.00" fill="#000000">token </text>
<text text-anchor="start" x="394.129" y="-603.9" font-family="Arial" font-size="14.00" fill="#666666">[varchar(256)]</text>
<polygon fill="none" stroke="#000000" points="349,-562.5 349,-592.5 598,-592.5 598,-562.5 349,-562.5"/>
<text text-anchor="start" x="355.6438" y="-573.9" font-family="Arial" font-size="14.00" fill="#000000">created_at </text>
<text text-anchor="start" x="425.6718" y="-573.9" font-family="Arial" font-size="14.00" fill="#666666">[timestamp with time zone]</text>
<polygon fill="none" stroke="#000000" points="349,-532.5 349,-562.5 598,-562.5 598,-532.5 349,-532.5"/>
<text text-anchor="start" x="356" y="-543.9" font-family="Arial" font-size="14.00" fill="#000000">expires_at </text>
<text text-anchor="start" x="424.4614" y="-543.9" font-family="Arial" font-size="14.00" fill="#666666">[timestamp with time zone]</text>
<polygon fill="none" stroke="#000000" points="349,-502.5 349,-532.5 598,-532.5 598,-502.5 349,-502.5"/>
<text text-anchor="start" x="356" y="-513.9" font-family="Arial" font-size="14.00" fill="#000000">deleted_at </text>
<text text-anchor="start" x="425.2566" y="-513.9" font-family="Arial" font-size="14.00" fill="#666666">[timestamp with time zone]</text>
<polygon fill="none" stroke="#000000" stroke-width="3" points="347,-501.5 347,-749.5 599,-749.5 599,-501.5 347,-501.5"/>
</g>
<!-- public.users -->
<g id="node2" class="node">
<title>public.users</title>
<polygon fill="#efefef" stroke="transparent" points="139,-342.5 139,-377.5 422,-377.5 422,-342.5 139,-342.5"/>
<polygon fill="none" stroke="#000000" points="139,-342.5 139,-377.5 422,-377.5 422,-342.5 139,-342.5"/>
<text text-anchor="start" x="168.7091" y="-355.3" font-family="Arial Bold" font-size="18.00" fill="#000000">public.users</text>
<text text-anchor="start" x="264.7229" y="-355.3" font-family="Arial" font-size="14.00" fill="#000000">    </text>
<text text-anchor="start" x="298.9277" y="-355.3" font-family="Arial" font-size="14.00" fill="#666666">[BASE TABLE]</text>
<polygon fill="none" stroke="#000000" points="139,-312.5 139,-342.5 422,-342.5 422,-312.5 139,-312.5"/>
<text text-anchor="start" x="146" y="-323.9" font-family="Arial" font-size="14.00" fill="#000000">id    </text>
<text text-anchor="start" x="191.094" y="-323.9" font-family="Arial" font-size="14.00" fill="#666666">[uuid]</text>
<polygon fill="none" stroke="#000000" points="139,-282.5 139,-312.5 422,-312.5 422,-282.5 139,-282.5"/>
<text text-anchor="start" x="146" y="-293.9" font-family="Arial" font-size="14.00" fill="#000000">email    </text>
<text text-anchor="start" x="213.6438" y="-293.9" font-family="Arial" font-size="14.00" fill="#666666">[varchar(255)]</text>
<polygon fill="none" stroke="#000000" points="139,-252.5 139,-282.5 422,-282.5 422,-252.5 139,-252.5"/>
<text text-anchor="start" x="146" y="-263.9" font-family="Arial" font-size="14.00" fill="#000000">login    </text>
<text text-anchor="start" x="209.7658" y="-263.9" font-family="Arial" font-size="14.00" fill="#666666">[varchar(80)]</text>
<polygon fill="none" stroke="#000000" points="139,-222.5 139,-252.5 422,-252.5 422,-222.5 139,-222.5"/>
<text text-anchor="start" x="146" y="-233.9" font-family="Arial" font-size="14.00" fill="#000000">first_name    </text>
<text text-anchor="start" x="245.5442" y="-233.9" font-family="Arial" font-size="14.00" fill="#666666">[varchar(20)]</text>
<polygon fill="none" stroke="#000000" points="139,-192.5 139,-222.5 422,-222.5 422,-192.5 139,-192.5"/>
<text text-anchor="start" x="146" y="-203.9" font-family="Arial" font-size="14.00" fill="#000000">last_name    </text>
<text text-anchor="start" x="244.7756" y="-203.9" font-family="Arial" font-size="14.00" fill="#666666">[varchar(20)]</text>
<polygon fill="none" stroke="#000000" points="139,-162.5 139,-192.5 422,-192.5 422,-162.5 139,-162.5"/>
<text text-anchor="start" x="146" y="-173.9" font-family="Arial" font-size="14.00" fill="#000000">middle_name    </text>
<text text-anchor="start" x="264.2174" y="-173.9" font-family="Arial" font-size="14.00" fill="#666666">[varchar(20)]</text>
<polygon fill="none" stroke="#000000" points="139,-132.5 139,-162.5 422,-162.5 422,-132.5 139,-132.5"/>
<text text-anchor="start" x="146" y="-143.9" font-family="Arial" font-size="14.00" fill="#000000">avatar    </text>
<text text-anchor="start" x="219.1038" y="-143.9" font-family="Arial" font-size="14.00" fill="#666666">[varchar(255)]</text>
<polygon fill="none" stroke="#000000" points="139,-102.5 139,-132.5 422,-132.5 422,-102.5 139,-102.5"/>
<text text-anchor="start" x="146" y="-113.9" font-family="Arial" font-size="14.00" fill="#000000">created_at    </text>
<text text-anchor="start" x="246.3422" y="-113.9" font-family="Arial" font-size="14.00" fill="#666666">[timestamp with time zone]</text>
<polygon fill="none" stroke="#000000" points="139,-72.5 139,-102.5 422,-102.5 422,-72.5 139,-72.5"/>
<text text-anchor="start" x="145.5344" y="-83.9" font-family="Arial" font-size="14.00" fill="#000000">updated_at    </text>
<text text-anchor="start" x="249.7812" y="-83.9" font-family="Arial" font-size="14.00" fill="#666666">[timestamp with time zone]</text>
<polygon fill="none" stroke="#000000" points="139,-42.5 139,-72.5 422,-72.5 422,-42.5 139,-42.5"/>
<text text-anchor="start" x="146" y="-53.9" font-family="Arial" font-size="14.00" fill="#000000">deleted_at    </text>
<text text-anchor="start" x="245.5708" y="-53.9" font-family="Arial" font-size="14.00" fill="#666666">[timestamp with time zone]</text>
</g>
<!-- public.access&#45;&gt;public.users -->
<g id="edge1" class="edge">
<title>public.access:user_id&#45;&gt;public.users:id</title>
<path fill="none" stroke="#000000" d="M338.6589,-666.911C258.9018,-657.3403 301.5263,-533.3443 349,-457 368.1029,-426.2799 402.8971,-451.7201 422,-421 443.9441,-385.7109 463.5556,-327.5 422,-327.5"/>
<polygon fill="#000000" stroke="#000000" points="339.0162,-666.9312 348.7441,-671.9927 344.0081,-667.2156 349,-667.5 349,-667.5 349,-667.5 344.0081,-667.2156 349.2559,-663.0073 339.0162,-666.9312 339.0162,-666.9312"/>
<text text-anchor="start" x="7.224" y="-677.5" font-family="Arial" font-size="10.00" fill="#000000">FOREIGN KEY (user_id) REFERENCES users(id) ON DELETE RESTRICT</text>
</g>
<!-- public.devices -->
<g id="node3" class="node">
<title>public.devices</title>
<polygon fill="#efefef" stroke="transparent" points="526,-267.5 526,-302.5 809,-302.5 809,-267.5 526,-267.5"/>
<polygon fill="none" stroke="#000000" points="526,-267.5 526,-302.5 809,-302.5 809,-267.5 526,-267.5"/>
<text text-anchor="start" x="547.205" y="-280.3" font-family="Arial Bold" font-size="18.00" fill="#000000">public.devices</text>
<text text-anchor="start" x="660.227" y="-280.3" font-family="Arial" font-size="14.00" fill="#000000">    </text>
<text text-anchor="start" x="694.4318" y="-280.3" font-family="Arial" font-size="14.00" fill="#666666">[BASE TABLE]</text>
<polygon fill="none" stroke="#000000" points="526,-237.5 526,-267.5 809,-267.5 809,-237.5 526,-237.5"/>
<text text-anchor="start" x="533" y="-248.9" font-family="Arial" font-size="14.00" fill="#000000">id    </text>
<text text-anchor="start" x="578.094" y="-248.9" font-family="Arial" font-size="14.00" fill="#666666">[uuid]</text>
<polygon fill="none" stroke="#000000" points="526,-207.5 526,-237.5 809,-237.5 809,-207.5 526,-207.5"/>
<text text-anchor="start" x="533" y="-218.9" font-family="Arial" font-size="14.00" fill="#000000">user_id    </text>
<text text-anchor="start" x="613.1024" y="-218.9" font-family="Arial" font-size="14.00" fill="#666666">[uuid]</text>
<polygon fill="none" stroke="#000000" points="526,-177.5 526,-207.5 809,-207.5 809,-177.5 526,-177.5"/>
<text text-anchor="start" x="533" y="-188.9" font-family="Arial" font-size="14.00" fill="#000000">device_token    </text>
<text text-anchor="start" x="649.6802" y="-188.9" font-family="Arial" font-size="14.00" fill="#666666">[varchar(256)]</text>
<polygon fill="none" stroke="#000000" points="526,-147.5 526,-177.5 809,-177.5 809,-147.5 526,-147.5"/>
<text text-anchor="start" x="533" y="-158.9" font-family="Arial" font-size="14.00" fill="#000000">created_at    </text>
<text text-anchor="start" x="633.3422" y="-158.9" font-family="Arial" font-size="14.00" fill="#666666">[timestamp with time zone]</text>
<polygon fill="none" stroke="#000000" points="526,-117.5 526,-147.5 809,-147.5 809,-117.5 526,-117.5"/>
<text text-anchor="start" x="532.5344" y="-128.9" font-family="Arial" font-size="14.00" fill="#000000">updated_at    </text>
<text text-anchor="start" x="636.7812" y="-128.9" font-family="Arial" font-size="14.00" fill="#666666">[timestamp with time zone]</text>
</g>
<!-- public.access&#45;&gt;public.devices -->
<g id="edge2" class="edge">
<title>public.access:device_id&#45;&gt;public.devices:id</title>
<path fill="none" stroke="#000000" d="M608.2345,-637.2069C780.5568,-626.9362 527.2221,-350.1297 526,-346 514.2082,-306.1526 484.4444,-252.5 526,-252.5"/>
<polygon fill="#000000" stroke="#000000" points="607.9959,-637.2137 597.8711,-633.0018 602.998,-637.3568 598,-637.5 598,-637.5 598,-637.5 602.998,-637.3568 598.1289,-641.9982 607.9959,-637.2137 607.9959,-637.2137"/>
<text text-anchor="start" x="604.775" y="-647.5" font-family="Arial" font-size="10.00" fill="#000000">FOREIGN KEY (device_id) REFERENCES devices(id) ON DELETE RESTRICT</text>
</g>
</g>
</svg>
