<?xml version="1.0" encoding="UTF-8" standalone="no"?>
<!DOCTYPE svg PUBLIC "-//W3C//DTD SVG 1.1//EN"
 "http://www.w3.org/Graphics/SVG/1.1/DTD/svg11.dtd">
<!-- Generated by graphviz version 2.40.1 (20161225.0304)
 -->
<!-- Title: mixery Pages: 1 -->
<svg width="1173pt" height="1103pt"
 viewBox="0.00 0.00 1173.00 1103.00" xmlns="http://www.w3.org/2000/svg" xmlns:xlink="http://www.w3.org/1999/xlink">
<g id="graph0" class="graph" transform="scale(1 1) rotate(0) translate(4 1099)">
<title>mixery</title>
<polygon fill="#ffffff" stroke="transparent" points="-4,4 -4,-1099 1169,-1099 1169,4 -4,4"/>
<!-- public.schema_migrations -->
<g id="node1" class="node">
<title>public.schema_migrations</title>
<polygon fill="#efefef" stroke="transparent" points="53,-941.5 53,-976.5 402,-976.5 402,-941.5 53,-941.5"/>
<polygon fill="none" stroke="#000000" points="53,-941.5 53,-976.5 402,-976.5 402,-941.5 53,-941.5"/>
<text text-anchor="start" x="59.703" y="-954.3" font-family="Arial Bold" font-size="18.00" fill="#000000">public.schema_migrations</text>
<text text-anchor="start" x="267.729" y="-954.3" font-family="Arial" font-size="14.00" fill="#000000">    </text>
<text text-anchor="start" x="301.9338" y="-954.3" font-family="Arial" font-size="14.00" fill="#666666">[BASE TABLE]</text>
<polygon fill="none" stroke="#000000" points="53,-911.5 53,-941.5 402,-941.5 402,-911.5 53,-911.5"/>
<text text-anchor="start" x="60" y="-922.9" font-family="Arial" font-size="14.00" fill="#000000">version    </text>
<text text-anchor="start" x="139.3198" y="-922.9" font-family="Arial" font-size="14.00" fill="#666666">[bigint]</text>
<polygon fill="none" stroke="#000000" points="53,-881.5 53,-911.5 402,-911.5 402,-881.5 53,-881.5"/>
<text text-anchor="start" x="60" y="-892.9" font-family="Arial" font-size="14.00" fill="#000000">dirty    </text>
<text text-anchor="start" x="120.6452" y="-892.9" font-family="Arial" font-size="14.00" fill="#666666">[boolean]</text>
</g>
<!-- public.users -->
<g id="node2" class="node">
<title>public.users</title>
<polygon fill="#efefef" stroke="transparent" points="397,-342.5 397,-377.5 680,-377.5 680,-342.5 397,-342.5"/>
<polygon fill="none" stroke="#000000" points="397,-342.5 397,-377.5 680,-377.5 680,-342.5 397,-342.5"/>
<text text-anchor="start" x="426.7091" y="-355.3" font-family="Arial Bold" font-size="18.00" fill="#000000">public.users</text>
<text text-anchor="start" x="522.7229" y="-355.3" font-family="Arial" font-size="14.00" fill="#000000">    </text>
<text text-anchor="start" x="556.9277" y="-355.3" font-family="Arial" font-size="14.00" fill="#666666">[BASE TABLE]</text>
<polygon fill="none" stroke="#000000" points="397,-312.5 397,-342.5 680,-342.5 680,-312.5 397,-312.5"/>
<text text-anchor="start" x="404" y="-323.9" font-family="Arial" font-size="14.00" fill="#000000">id    </text>
<text text-anchor="start" x="449.094" y="-323.9" font-family="Arial" font-size="14.00" fill="#666666">[uuid]</text>
<polygon fill="none" stroke="#000000" points="397,-282.5 397,-312.5 680,-312.5 680,-282.5 397,-282.5"/>
<text text-anchor="start" x="404" y="-293.9" font-family="Arial" font-size="14.00" fill="#000000">email    </text>
<text text-anchor="start" x="471.6438" y="-293.9" font-family="Arial" font-size="14.00" fill="#666666">[varchar(255)]</text>
<polygon fill="none" stroke="#000000" points="397,-252.5 397,-282.5 680,-282.5 680,-252.5 397,-252.5"/>
<text text-anchor="start" x="404" y="-263.9" font-family="Arial" font-size="14.00" fill="#000000">login    </text>
<text text-anchor="start" x="467.7658" y="-263.9" font-family="Arial" font-size="14.00" fill="#666666">[varchar(80)]</text>
<polygon fill="none" stroke="#000000" points="397,-222.5 397,-252.5 680,-252.5 680,-222.5 397,-222.5"/>
<text text-anchor="start" x="404" y="-233.9" font-family="Arial" font-size="14.00" fill="#000000">first_name    </text>
<text text-anchor="start" x="503.5442" y="-233.9" font-family="Arial" font-size="14.00" fill="#666666">[varchar(20)]</text>
<polygon fill="none" stroke="#000000" points="397,-192.5 397,-222.5 680,-222.5 680,-192.5 397,-192.5"/>
<text text-anchor="start" x="404" y="-203.9" font-family="Arial" font-size="14.00" fill="#000000">last_name    </text>
<text text-anchor="start" x="502.7756" y="-203.9" font-family="Arial" font-size="14.00" fill="#666666">[varchar(20)]</text>
<polygon fill="none" stroke="#000000" points="397,-162.5 397,-192.5 680,-192.5 680,-162.5 397,-162.5"/>
<text text-anchor="start" x="404" y="-173.9" font-family="Arial" font-size="14.00" fill="#000000">middle_name    </text>
<text text-anchor="start" x="522.2174" y="-173.9" font-family="Arial" font-size="14.00" fill="#666666">[varchar(20)]</text>
<polygon fill="none" stroke="#000000" points="397,-132.5 397,-162.5 680,-162.5 680,-132.5 397,-132.5"/>
<text text-anchor="start" x="404" y="-143.9" font-family="Arial" font-size="14.00" fill="#000000">avatar    </text>
<text text-anchor="start" x="477.1038" y="-143.9" font-family="Arial" font-size="14.00" fill="#666666">[varchar(255)]</text>
<polygon fill="none" stroke="#000000" points="397,-102.5 397,-132.5 680,-132.5 680,-102.5 397,-102.5"/>
<text text-anchor="start" x="404" y="-113.9" font-family="Arial" font-size="14.00" fill="#000000">created_at    </text>
<text text-anchor="start" x="504.3422" y="-113.9" font-family="Arial" font-size="14.00" fill="#666666">[timestamp with time zone]</text>
<polygon fill="none" stroke="#000000" points="397,-72.5 397,-102.5 680,-102.5 680,-72.5 397,-72.5"/>
<text text-anchor="start" x="403.5344" y="-83.9" font-family="Arial" font-size="14.00" fill="#000000">updated_at    </text>
<text text-anchor="start" x="507.7812" y="-83.9" font-family="Arial" font-size="14.00" fill="#666666">[timestamp with time zone]</text>
<polygon fill="none" stroke="#000000" points="397,-42.5 397,-72.5 680,-72.5 680,-42.5 397,-42.5"/>
<text text-anchor="start" x="404" y="-53.9" font-family="Arial" font-size="14.00" fill="#000000">deleted_at    </text>
<text text-anchor="start" x="503.5708" y="-53.9" font-family="Arial" font-size="14.00" fill="#666666">[timestamp with time zone]</text>
</g>
<!-- public.verifications -->
<g id="node3" class="node">
<title>public.verifications</title>
<polygon fill="#efefef" stroke="transparent" points="180,-649.5 180,-684.5 468,-684.5 468,-649.5 180,-649.5"/>
<polygon fill="none" stroke="#000000" points="180,-649.5 180,-684.5 468,-684.5 468,-649.5 180,-649.5"/>
<text text-anchor="start" x="186.7094" y="-662.3" font-family="Arial Bold" font-size="18.00" fill="#000000">public.verifications</text>
<text text-anchor="start" x="333.7226" y="-662.3" font-family="Arial" font-size="14.00" fill="#000000">    </text>
<text text-anchor="start" x="367.9274" y="-662.3" font-family="Arial" font-size="14.00" fill="#666666">[BASE TABLE]</text>
<polygon fill="none" stroke="#000000" points="180,-619.5 180,-649.5 468,-649.5 468,-619.5 180,-619.5"/>
<text text-anchor="start" x="187" y="-630.9" font-family="Arial" font-size="14.00" fill="#000000">email    </text>
<text text-anchor="start" x="254.6438" y="-630.9" font-family="Arial" font-size="14.00" fill="#666666">[varchar(255)]</text>
<polygon fill="none" stroke="#000000" points="180,-589.5 180,-619.5 468,-619.5 468,-589.5 180,-589.5"/>
<text text-anchor="start" x="187" y="-600.9" font-family="Arial" font-size="14.00" fill="#000000">type    </text>
<text text-anchor="start" x="247.6606" y="-600.9" font-family="Arial" font-size="14.00" fill="#666666">[varchar(25)]</text>
<polygon fill="none" stroke="#000000" points="180,-559.5 180,-589.5 468,-589.5 468,-559.5 180,-559.5"/>
<text text-anchor="start" x="187" y="-570.9" font-family="Arial" font-size="14.00" fill="#000000">code    </text>
<text text-anchor="start" x="251.5526" y="-570.9" font-family="Arial" font-size="14.00" fill="#666666">[varchar(10)]</text>
<polygon fill="none" stroke="#000000" points="180,-529.5 180,-559.5 468,-559.5 468,-529.5 180,-529.5"/>
<text text-anchor="start" x="187" y="-540.9" font-family="Arial" font-size="14.00" fill="#000000">created_at    </text>
<text text-anchor="start" x="287.3422" y="-540.9" font-family="Arial" font-size="14.00" fill="#666666">[timestamp with time zone]</text>
<polygon fill="none" stroke="#000000" points="180,-499.5 180,-529.5 468,-529.5 468,-499.5 180,-499.5"/>
<text text-anchor="start" x="187" y="-510.9" font-family="Arial" font-size="14.00" fill="#000000">expires_at    </text>
<text text-anchor="start" x="285.7756" y="-510.9" font-family="Arial" font-size="14.00" fill="#666666">[timestamp with time zone]</text>
</g>
<!-- public.verifications&#45;&gt;public.users -->
<g id="edge1" class="edge">
<title>public.verifications:email&#45;&gt;public.users:email</title>
<path fill="none" stroke="#000000" d="M478.3375,-633.7889C543.3555,-624.2561 507.3504,-521.072 468,-457 449.4842,-426.8517 415.5158,-451.1483 397,-421 368.2745,-374.2278 342.1111,-297.5 397,-297.5"/>
<polygon fill="#000000" stroke="#000000" points="477.9764,-633.8136 467.6911,-630.0106 472.9882,-634.1568 468,-634.5 468,-634.5 468,-634.5 472.9882,-634.1568 468.3089,-638.9894 477.9764,-633.8136 477.9764,-633.8136"/>
<text text-anchor="start" x="6.509" y="-644.5" font-family="Arial" font-size="10.00" fill="#000000">FOREIGN KEY (email) REFERENCES users(email) ON UPDATE CASCADE ON DELETE RESTRICT</text>
</g>
<!-- public.devices -->
<g id="node4" class="node">
<title>public.devices</title>
<polygon fill="#efefef" stroke="transparent" points="611,-649.5 611,-684.5 894,-684.5 894,-649.5 611,-649.5"/>
<polygon fill="none" stroke="#000000" points="611,-649.5 611,-684.5 894,-684.5 894,-649.5 611,-649.5"/>
<text text-anchor="start" x="632.205" y="-662.3" font-family="Arial Bold" font-size="18.00" fill="#000000">public.devices</text>
<text text-anchor="start" x="745.227" y="-662.3" font-family="Arial" font-size="14.00" fill="#000000">    </text>
<text text-anchor="start" x="779.4318" y="-662.3" font-family="Arial" font-size="14.00" fill="#666666">[BASE TABLE]</text>
<polygon fill="none" stroke="#000000" points="611,-619.5 611,-649.5 894,-649.5 894,-619.5 611,-619.5"/>
<text text-anchor="start" x="618" y="-630.9" font-family="Arial" font-size="14.00" fill="#000000">id    </text>
<text text-anchor="start" x="663.094" y="-630.9" font-family="Arial" font-size="14.00" fill="#666666">[uuid]</text>
<polygon fill="none" stroke="#000000" points="611,-589.5 611,-619.5 894,-619.5 894,-589.5 611,-589.5"/>
<text text-anchor="start" x="618" y="-600.9" font-family="Arial" font-size="14.00" fill="#000000">user_id    </text>
<text text-anchor="start" x="698.1024" y="-600.9" font-family="Arial" font-size="14.00" fill="#666666">[uuid]</text>
<polygon fill="none" stroke="#000000" points="611,-559.5 611,-589.5 894,-589.5 894,-559.5 611,-559.5"/>
<text text-anchor="start" x="618" y="-570.9" font-family="Arial" font-size="14.00" fill="#000000">device_token    </text>
<text text-anchor="start" x="734.6802" y="-570.9" font-family="Arial" font-size="14.00" fill="#666666">[varchar(256)]</text>
<polygon fill="none" stroke="#000000" points="611,-529.5 611,-559.5 894,-559.5 894,-529.5 611,-529.5"/>
<text text-anchor="start" x="618" y="-540.9" font-family="Arial" font-size="14.00" fill="#000000">created_at    </text>
<text text-anchor="start" x="718.3422" y="-540.9" font-family="Arial" font-size="14.00" fill="#666666">[timestamp with time zone]</text>
<polygon fill="none" stroke="#000000" points="611,-499.5 611,-529.5 894,-529.5 894,-499.5 611,-499.5"/>
<text text-anchor="start" x="617.5344" y="-510.9" font-family="Arial" font-size="14.00" fill="#000000">updated_at    </text>
<text text-anchor="start" x="721.7812" y="-510.9" font-family="Arial" font-size="14.00" fill="#666666">[timestamp with time zone]</text>
</g>
<!-- public.devices&#45;&gt;public.users -->
<g id="edge2" class="edge">
<title>public.devices:user_id&#45;&gt;public.users:id</title>
<path fill="none" stroke="#000000" d="M600.7783,-603.643C549.0288,-594.2551 578.9422,-509.8846 611,-457 628.9306,-427.4206 662.0694,-450.5794 680,-421 701.5415,-385.4637 721.5556,-327.5 680,-327.5"/>
<polygon fill="#000000" stroke="#000000" points="601.035,-603.6644 610.624,-608.9843 606.0175,-604.0822 611,-604.5 611,-604.5 611,-604.5 606.0175,-604.0822 611.376,-600.0157 601.035,-603.6644 601.035,-603.6644"/>
<text text-anchor="start" x="530.974" y="-588.5" font-family="Arial" font-size="10.00" fill="#000000">FOREIGN KEY (user_id) REFERENCES users(id) ON DELETE RESTRICT</text>
</g>
<!-- public.access -->
<g id="node5" class="node">
<title>public.access</title>
<polygon fill="#efefef" stroke="transparent" points="506,-1016.5 506,-1051.5 786,-1051.5 786,-1016.5 506,-1016.5"/>
<polygon fill="none" stroke="#000000" points="506,-1016.5 506,-1051.5 786,-1051.5 786,-1016.5 506,-1016.5"/>
<text text-anchor="start" x="528.2052" y="-1029.3" font-family="Arial Bold" font-size="18.00" fill="#000000">public.access</text>
<text text-anchor="start" x="636.2268" y="-1029.3" font-family="Arial" font-size="14.00" fill="#000000">    </text>
<text text-anchor="start" x="670.4316" y="-1029.3" font-family="Arial" font-size="14.00" fill="#666666">[BASE TABLE]</text>
<polygon fill="none" stroke="#000000" points="506,-986.5 506,-1016.5 786,-1016.5 786,-986.5 506,-986.5"/>
<text text-anchor="start" x="513" y="-997.9" font-family="Arial" font-size="14.00" fill="#000000">id    </text>
<text text-anchor="start" x="558.094" y="-997.9" font-family="Arial" font-size="14.00" fill="#666666">[uuid]</text>
<polygon fill="none" stroke="#000000" points="506,-956.5 506,-986.5 786,-986.5 786,-956.5 506,-956.5"/>
<text text-anchor="start" x="513" y="-967.9" font-family="Arial" font-size="14.00" fill="#000000">user_id    </text>
<text text-anchor="start" x="593.1024" y="-967.9" font-family="Arial" font-size="14.00" fill="#666666">[uuid]</text>
<polygon fill="none" stroke="#000000" points="506,-926.5 506,-956.5 786,-956.5 786,-926.5 506,-926.5"/>
<text text-anchor="start" x="513" y="-937.9" font-family="Arial" font-size="14.00" fill="#000000">device_id    </text>
<text text-anchor="start" x="606.331" y="-937.9" font-family="Arial" font-size="14.00" fill="#666666">[uuid]</text>
<polygon fill="none" stroke="#000000" points="506,-896.5 506,-926.5 786,-926.5 786,-896.5 506,-896.5"/>
<text text-anchor="start" x="513" y="-907.9" font-family="Arial" font-size="14.00" fill="#000000">token    </text>
<text text-anchor="start" x="581.4432" y="-907.9" font-family="Arial" font-size="14.00" fill="#666666">[varchar(256)]</text>
<polygon fill="none" stroke="#000000" points="506,-866.5 506,-896.5 786,-896.5 786,-866.5 506,-866.5"/>
<text text-anchor="start" x="512.9867" y="-877.9" font-family="Arial" font-size="14.00" fill="#000000">created_at    </text>
<text text-anchor="start" x="613.3289" y="-877.9" font-family="Arial" font-size="14.00" fill="#666666">[timestamp with time zone]</text>
<polygon fill="none" stroke="#000000" points="506,-836.5 506,-866.5 786,-866.5 786,-836.5 506,-836.5"/>
<text text-anchor="start" x="513" y="-847.9" font-family="Arial" font-size="14.00" fill="#000000">expires_at    </text>
<text text-anchor="start" x="611.7756" y="-847.9" font-family="Arial" font-size="14.00" fill="#666666">[timestamp with time zone]</text>
<polygon fill="none" stroke="#000000" points="506,-806.5 506,-836.5 786,-836.5 786,-806.5 506,-806.5"/>
<text text-anchor="start" x="513" y="-817.9" font-family="Arial" font-size="14.00" fill="#000000">deleted_at    </text>
<text text-anchor="start" x="612.5708" y="-817.9" font-family="Arial" font-size="14.00" fill="#666666">[timestamp with time zone]</text>
</g>
<!-- public.access&#45;&gt;public.users -->
<g id="edge3" class="edge">
<title>public.access:user_id&#45;&gt;public.users:id</title>
<path fill="none" stroke="#000000" d="M495.9457,-970.9736C419.5653,-962.4104 489.6599,-851.1003 506,-764 509.1654,-747.1271 515.6679,-744.6117 520,-728 535.3454,-669.1566 518.288,-503.0541 558,-457 594.9184,-414.1855 646.151,-466.2802 680,-421 704.881,-387.7164 721.5556,-327.5 680,-327.5"/>
<polygon fill="#000000" stroke="#000000" points="496.0137,-970.9771 505.7647,-975.9938 501.0068,-971.2385 506,-971.5 506,-971.5 506,-971.5 501.0068,-971.2385 506.2353,-967.0062 496.0137,-970.9771 496.0137,-970.9771"/>
<text text-anchor="start" x="251.474" y="-955.5" font-family="Arial" font-size="10.00" fill="#000000">FOREIGN KEY (user_id) REFERENCES users(id) ON DELETE RESTRICT</text>
</g>
<!-- public.access&#45;&gt;public.devices -->
<g id="edge4" class="edge">
<title>public.access:device_id&#45;&gt;public.devices:id</title>
<path fill="none" stroke="#000000" d="M795.986,-940.8111C862.2377,-931.1577 833.6078,-822.3984 786,-764 735.8259,-702.4537 661.1741,-789.5463 611,-728 584.7425,-695.7912 569.4444,-634.5 611,-634.5"/>
<polygon fill="#000000" stroke="#000000" points="795.9763,-940.8117 785.6903,-937.0107 790.9881,-941.1559 786,-941.5 786,-941.5 786,-941.5 790.9881,-941.1559 786.3097,-945.9893 795.9763,-940.8117 795.9763,-940.8117"/>
<text text-anchor="start" x="792.775" y="-951.5" font-family="Arial" font-size="10.00" fill="#000000">FOREIGN KEY (device_id) REFERENCES devices(id) ON DELETE RESTRICT</text>
</g>
<!-- public.apps -->
<g id="node6" class="node">
<title>public.apps</title>
<polygon fill="#efefef" stroke="transparent" points="890,-971.5 890,-1006.5 1122,-1006.5 1122,-971.5 890,-971.5"/>
<polygon fill="none" stroke="#000000" points="890,-971.5 890,-1006.5 1122,-1006.5 1122,-971.5 890,-971.5"/>
<text text-anchor="start" x="896.7021" y="-984.3" font-family="Arial Bold" font-size="18.00" fill="#000000">public.apps</text>
<text text-anchor="start" x="987.7299" y="-984.3" font-family="Arial" font-size="14.00" fill="#000000">    </text>
<text text-anchor="start" x="1021.9347" y="-984.3" font-family="Arial" font-size="14.00" fill="#666666">[BASE TABLE]</text>
<polygon fill="none" stroke="#000000" points="890,-941.5 890,-971.5 1122,-971.5 1122,-941.5 890,-941.5"/>
<text text-anchor="start" x="897" y="-952.9" font-family="Arial" font-size="14.00" fill="#000000">id    </text>
<text text-anchor="start" x="942.094" y="-952.9" font-family="Arial" font-size="14.00" fill="#666666">[bigint]</text>
<polygon fill="none" stroke="#000000" points="890,-911.5 890,-941.5 1122,-941.5 1122,-911.5 890,-911.5"/>
<text text-anchor="start" x="897" y="-922.9" font-family="Arial" font-size="14.00" fill="#000000">name    </text>
<text text-anchor="start" x="966.2132" y="-922.9" font-family="Arial" font-size="14.00" fill="#666666">[varchar(256)]</text>
<polygon fill="none" stroke="#000000" points="890,-881.5 890,-911.5 1122,-911.5 1122,-881.5 890,-881.5"/>
<text text-anchor="start" x="897" y="-892.9" font-family="Arial" font-size="14.00" fill="#000000">secret    </text>
<text text-anchor="start" x="969.3212" y="-892.9" font-family="Arial" font-size="14.00" fill="#666666">[varchar(256)]</text>
<polygon fill="none" stroke="#000000" points="890,-851.5 890,-881.5 1122,-881.5 1122,-851.5 890,-851.5"/>
<text text-anchor="start" x="897" y="-862.9" font-family="Arial" font-size="14.00" fill="#000000">scope    </text>
<text text-anchor="start" x="968.5526" y="-862.9" font-family="Arial" font-size="14.00" fill="#666666">[varchar(25)]</text>
</g>
</g>
</svg>
